<mxfile host="app.diagrams.net" modified="2022-09-28T07:15:52.270Z" agent="5.0 (X11; Linux x86_64) AppleWebKit/537.36 (KHTML, like Gecko) Chrome/104.0.5112.112 Safari/537.36" etag="5DGrhCipAlcWrVvCyIVn" version="20.3.6" type="github">
  <diagram id="VOloHFkVBhOwXJst6HIr" name="Seite-1">
    <mxGraphModel dx="1146" dy="727" grid="1" gridSize="10" guides="1" tooltips="1" connect="1" arrows="1" fold="1" page="1" pageScale="1" pageWidth="827" pageHeight="1169" math="0" shadow="0">
      <root>
        <mxCell id="0" />
        <mxCell id="1" parent="0" />
        <mxCell id="d27cygxYp46sS9W23bmc-17" value="" style="rounded=0;whiteSpace=wrap;html=1;labelBackgroundColor=default;fillColor=#FFFFFF;" vertex="1" parent="1">
          <mxGeometry x="60" y="40" width="320" height="450" as="geometry" />
        </mxCell>
        <mxCell id="d27cygxYp46sS9W23bmc-9" value="Smartphone App" style="rounded=0;whiteSpace=wrap;html=1;" vertex="1" parent="1">
          <mxGeometry x="80" y="80" width="120" height="80" as="geometry" />
        </mxCell>
        <mxCell id="d27cygxYp46sS9W23bmc-1" value="PostgreSQL Datenbank" style="shape=cylinder3;whiteSpace=wrap;html=1;boundedLbl=1;backgroundOutline=1;size=15;fillColor=#dae8fc;strokeColor=#6c8ebf;" vertex="1" parent="1">
          <mxGeometry x="80" y="400" width="120" height="80" as="geometry" />
        </mxCell>
        <mxCell id="d27cygxYp46sS9W23bmc-4" value="Externe API" style="ellipse;shape=cloud;whiteSpace=wrap;html=1;" vertex="1" parent="1">
          <mxGeometry x="240" y="400" width="120" height="80" as="geometry" />
        </mxCell>
        <mxCell id="d27cygxYp46sS9W23bmc-11" value="" style="rounded=0;whiteSpace=wrap;html=1;labelBackgroundColor=default;fillColor=#FFFFFF;" vertex="1" parent="1">
          <mxGeometry x="70" y="55" width="30" height="50" as="geometry" />
        </mxCell>
        <mxCell id="d27cygxYp46sS9W23bmc-10" value="" style="verticalLabelPosition=bottom;verticalAlign=top;html=1;shadow=0;dashed=0;strokeWidth=1;shape=mxgraph.android.phone2;labelBackgroundColor=default;fillOpacity=100;" vertex="1" parent="1">
          <mxGeometry x="70" y="50" width="30" height="60" as="geometry" />
        </mxCell>
        <mxCell id="d27cygxYp46sS9W23bmc-6" value="NodeJS Backend-Server" style="rounded=0;whiteSpace=wrap;html=1;" vertex="1" parent="1">
          <mxGeometry x="80" y="240" width="280" height="80" as="geometry" />
        </mxCell>
        <mxCell id="d27cygxYp46sS9W23bmc-18" value="" style="endArrow=classic;html=1;rounded=0;exitX=0.25;exitY=1;exitDx=0;exitDy=0;entryX=0.5;entryY=0;entryDx=0;entryDy=0;entryPerimeter=0;" edge="1" parent="1" source="d27cygxYp46sS9W23bmc-6" target="d27cygxYp46sS9W23bmc-1">
          <mxGeometry width="50" height="50" relative="1" as="geometry">
            <mxPoint x="370" y="370" as="sourcePoint" />
            <mxPoint x="420" y="320" as="targetPoint" />
            <Array as="points">
              <mxPoint x="150" y="360" />
              <mxPoint x="140" y="360" />
            </Array>
          </mxGeometry>
        </mxCell>
        <mxCell id="d27cygxYp46sS9W23bmc-19" value="" style="endArrow=classic;html=1;rounded=0;exitX=0.75;exitY=1;exitDx=0;exitDy=0;entryX=0.625;entryY=0.2;entryDx=0;entryDy=0;entryPerimeter=0;" edge="1" parent="1" source="d27cygxYp46sS9W23bmc-6" target="d27cygxYp46sS9W23bmc-4">
          <mxGeometry width="50" height="50" relative="1" as="geometry">
            <mxPoint x="370" y="370" as="sourcePoint" />
            <mxPoint x="420" y="320" as="targetPoint" />
            <Array as="points">
              <mxPoint x="290" y="360" />
              <mxPoint x="315" y="360" />
            </Array>
          </mxGeometry>
        </mxCell>
        <mxCell id="d27cygxYp46sS9W23bmc-20" value="" style="endArrow=classic;html=1;rounded=0;exitX=0.5;exitY=1;exitDx=0;exitDy=0;entryX=0.25;entryY=0;entryDx=0;entryDy=0;" edge="1" parent="1" source="d27cygxYp46sS9W23bmc-9" target="d27cygxYp46sS9W23bmc-6">
          <mxGeometry width="50" height="50" relative="1" as="geometry">
            <mxPoint x="310" y="180" as="sourcePoint" />
            <mxPoint x="360" y="130" as="targetPoint" />
            <Array as="points">
              <mxPoint x="140" y="200" />
              <mxPoint x="150" y="200" />
            </Array>
          </mxGeometry>
        </mxCell>
        <mxCell id="d27cygxYp46sS9W23bmc-21" value="Weitere Services" style="rounded=0;whiteSpace=wrap;html=1;labelBackgroundColor=default;fillColor=#FFFFFF;" vertex="1" parent="1">
          <mxGeometry x="240" y="80" width="120" height="80" as="geometry" />
        </mxCell>
        <mxCell id="d27cygxYp46sS9W23bmc-22" value="" style="ellipse;shape=cloud;whiteSpace=wrap;html=1;labelBackgroundColor=default;fillColor=#FFFFFF;" vertex="1" parent="1">
          <mxGeometry x="220" y="65" width="50" height="30" as="geometry" />
        </mxCell>
        <mxCell id="d27cygxYp46sS9W23bmc-23" value="" style="endArrow=classic;html=1;rounded=0;exitX=0.5;exitY=1;exitDx=0;exitDy=0;entryX=0.75;entryY=0;entryDx=0;entryDy=0;" edge="1" parent="1" source="d27cygxYp46sS9W23bmc-21" target="d27cygxYp46sS9W23bmc-6">
          <mxGeometry width="50" height="50" relative="1" as="geometry">
            <mxPoint x="470" y="300" as="sourcePoint" />
            <mxPoint x="520" y="250" as="targetPoint" />
            <Array as="points">
              <mxPoint x="300" y="200" />
              <mxPoint x="290" y="200" />
            </Array>
          </mxGeometry>
        </mxCell>
        <mxCell id="d27cygxYp46sS9W23bmc-24" value="REST API" style="rounded=0;whiteSpace=wrap;html=1;labelBackgroundColor=default;fillColor=#FFFFFF;" vertex="1" parent="1">
          <mxGeometry x="80" y="240" width="280" height="30" as="geometry" />
        </mxCell>
      </root>
    </mxGraphModel>
  </diagram>
</mxfile>
